<?xml version="1.0" encoding="utf-8"?>
<!-- Generator: Adobe Illustrator 16.0.4, SVG Export Plug-In . SVG Version: 6.00 Build 0)  -->
<!DOCTYPE svg PUBLIC "-//W3C//DTD SVG 1.1 Tiny//EN" "http://www.w3.org/Graphics/SVG/1.1/DTD/svg11-tiny.dtd" [
	<!ENTITY ns_flows "http://ns.adobe.com/Flows/1.0/">
	<!ENTITY ns_extend "http://ns.adobe.com/Extensibility/1.0/">
	<!ENTITY ns_ai "http://ns.adobe.com/AdobeIllustrator/10.0/">
	<!ENTITY ns_graphs "http://ns.adobe.com/Graphs/1.0/">
]>
<svg version="1.1" baseProfile="tiny" id="Layer_1" xmlns:x="&ns_extend;" xmlns:i="&ns_ai;" xmlns:graph="&ns_graphs;"
	 xmlns="http://www.w3.org/2000/svg" xmlns:xlink="http://www.w3.org/1999/xlink" xmlns:a="http://ns.adobe.com/AdobeSVGViewerExtensions/3.0/"
	 x="0px" y="0px" width="42px" height="42px" viewBox="-0.5 0.5 42 42" xml:space="preserve">
<path d="M23.59,25.439c7.333-3.979,4.93-12.989,2.494-16.331c-3.007-4.1-4.516-5.17-9.676-7.609c0.433,0.71,3.602,4.84,0.181,7.43
	c-3.952,3.41-4.656,12.8,1.127,16.16C18.843,25.75,23.59,25.439,23.59,25.439z M15.5,27.5v3c4,1.35,7,1.4,11,0v-3
	C22.5,28.95,19.5,29,15.5,27.5z M15.5,33.5v5.05c0,2.44,0.204,2.96,2.719,2.95h5.387c2.436,0,2.884-0.529,2.884-3
	c0.028-0.011-0.054-5-0.054-5C22.904,34.95,18.5,34.95,15.5,33.5z"/>
</svg>
