<?xml version="1.0" encoding="utf-8"?>
<!-- Generator: Adobe Illustrator 16.0.4, SVG Export Plug-In . SVG Version: 6.00 Build 0)  -->
<!DOCTYPE svg PUBLIC "-//W3C//DTD SVG 1.1 Tiny//EN" "http://www.w3.org/Graphics/SVG/1.1/DTD/svg11-tiny.dtd" [
	<!ENTITY ns_flows "http://ns.adobe.com/Flows/1.0/">
	<!ENTITY ns_extend "http://ns.adobe.com/Extensibility/1.0/">
	<!ENTITY ns_ai "http://ns.adobe.com/AdobeIllustrator/10.0/">
	<!ENTITY ns_graphs "http://ns.adobe.com/Graphs/1.0/">
]>
<svg version="1.1" baseProfile="tiny" id="Layer_1" xmlns:x="&ns_extend;" xmlns:i="&ns_ai;" xmlns:graph="&ns_graphs;"
	 xmlns="http://www.w3.org/2000/svg" xmlns:xlink="http://www.w3.org/1999/xlink" xmlns:a="http://ns.adobe.com/AdobeSVGViewerExtensions/3.0/"
	 x="0px" y="0px" width="42px" height="42px" viewBox="0 0 42 42" xml:space="preserve">
<path d="M21,1C9.954,1,1,9.954,1,21s8.954,20,20,20s20-8.954,20-20S32.046,1,21,1z M21,3.178c9.843,0,17.822,7.979,17.822,17.822
	S30.843,38.822,21,38.822S3.178,30.843,3.178,21S11.157,3.178,21,3.178z M12.154,8.397c-0.507,1.476-0.684,3.077-0.229,4.476
	c-0.549,0.608-0.975,1.308-1.279,2.1c-0.812,2.566-0.614,5.848,1.164,7.832c0.625,0.685,1.473,1.248,2.539,1.689
	s2.438,0.723,4.113,0.844c-1.125,0.526-1.918,0.848-2.194,2.01c-1.255,0.838-2.78,0.639-3.887-0.273
	c-0.874-0.639-1.271-1.771-2.239-2.192c-0.061-0.062-0.251-0.106-0.57-0.137c-0.32-0.03-0.572,0.061-0.755,0.273
	c-0.091,0.091-0.085,0.188,0.022,0.296c0.732,0.596,1.439,1.229,1.853,1.986c0.396,0.822,0.942,1.318,1.37,1.699
	c1.184,0.8,2.735,1.086,4.125,0.578c-0.162,0.978,0.173,2.74-0.148,3.614c-0.122,0.243-0.297,0.457-0.525,0.64
	c-0.203,0.199-0.835,0.447-0.707,0.752c0.061,0.137,0.273,0.221,0.639,0.252c0.806-0.021,1.719-0.347,2.191-0.982
	C17.805,33.625,18,33.328,18,32.963v-3.742c0-0.427,0.156-0.73,0.339-0.914c0.183-0.182,0.349-0.322,0.661-0.365v4.932
	c0,0.426-0.216,0.791-0.292,1.096s-0.231,0.518-0.294,0.64c-0.139,0.235-0.45,0.451-0.456,0.729c0,0.092,0.033,0.145,0.14,0.159
	c0.801-0.034,1.958-0.505,2.284-1.165C20.642,33.785,21,33.208,21,32.6V28h1v4.6c0,0.608-0.1,1.186,0.175,1.732
	c0.274,0.549,0.614,0.9,1.253,1.053c0.336,0.092,0.503,0.127,0.625,0.112s0.146-0.067,0.131-0.159
	c-0.073-0.275-0.464-0.513-0.626-0.729C23.345,34.334,23,33.756,23,32.873v-4.932c0.328,0.074,0.463,0.184,0.662,0.365
	C23.859,28.49,24,28.794,24,29.221v3.742c0,0.365,0.264,0.662,0.432,0.891c0.509,0.648,1.367,0.977,2.17,0.982
	c0.365-0.031,0.623-0.115,0.684-0.252c0.062-0.137,0.038-0.25-0.114-0.342s-0.331-0.228-0.56-0.41s-0.397-0.396-0.52-0.64
	c-0.137-1.57-0.001-3.253-0.112-4.841c-0.219-1.732-0.885-2.303-2.215-2.967c1.586-0.121,2.889-0.412,3.909-0.869
	c3.052-1.482,3.896-3.775,3.91-6.848c-0.049-1.979-0.619-3.703-1.922-5.025c0.183-0.699,0.237-1.428,0.161-2.189
	s-0.237-1.447-0.481-2.056c-1.127,0.062-2.072,0.288-2.834,0.684s-1.311,0.731-1.646,1.006c-2.7-0.613-5.591-0.616-8.181,0.091
	C15.355,9.094,13.714,8.49,12.154,8.397z"/>
</svg>
