<?xml version="1.0" encoding="utf-8"?>
<!-- Generator: Adobe Illustrator 16.0.4, SVG Export Plug-In . SVG Version: 6.00 Build 0)  -->
<!DOCTYPE svg PUBLIC "-//W3C//DTD SVG 1.1 Tiny//EN" "http://www.w3.org/Graphics/SVG/1.1/DTD/svg11-tiny.dtd" [
	<!ENTITY ns_flows "http://ns.adobe.com/Flows/1.0/">
	<!ENTITY ns_extend "http://ns.adobe.com/Extensibility/1.0/">
	<!ENTITY ns_ai "http://ns.adobe.com/AdobeIllustrator/10.0/">
	<!ENTITY ns_graphs "http://ns.adobe.com/Graphs/1.0/">
]>
<svg version="1.1" baseProfile="tiny" id="Layer_1" xmlns:x="&ns_extend;" xmlns:i="&ns_ai;" xmlns:graph="&ns_graphs;"
	 xmlns="http://www.w3.org/2000/svg" xmlns:xlink="http://www.w3.org/1999/xlink" xmlns:a="http://ns.adobe.com/AdobeSVGViewerExtensions/3.0/"
	 x="0px" y="0px" width="42px" height="42px" viewBox="-0.5 0.5 42 42" xml:space="preserve">
<path d="M0.5,1.5v7.033C2.989,6.125,7.148,4.5,10.861,4.5h12.325l-3.282,3h-3.54c0.854,1,1.649,1.682,2.28,2.734
	c0.816,1.389,1.244,3.045,1.26,4.759c-0.008,1.65-0.404,3.505-1.431,5.044c-0.838,1.232-2.04,2.305-3.306,3.291
	c-0.832,0.834-1.558,1.533-1.619,2.857c0.01,0.988,0.656,1.881,1.536,2.52c1.472,1.143,2.731,2.097,4.114,3.284
	c1.325,1.145,2.558,2.562,3.347,4.288c0.676,1.565,0.682,3.469,0.215,5.223H40.5v-26h-7v7h-3v-7h-7v-3h7v-8h3v8h7v-11H0.5z
	 M7.805,6.998c-0.721,0.016-1.451,0.174-2.146,0.49C4.264,8.172,3.24,9.273,2.866,10.945c-0.287,1.73-0.225,3.562,0.215,5.416
	c0.521,2.114,1.557,4.121,3.431,5.588c1.413,0.998,3.553,1.146,5.354,0.658c1.408-0.418,2.416-1.749,2.963-3.197
	c0.497-1.57,0.326-3.355-0.107-5.158c-0.562-2.303-1.68-4.526-3.646-6.207C10.171,7.345,9.005,6.972,7.805,6.998z M0.5,23.035
	v10.148c2.006-1.481,4.792-1.662,7.314-1.748c0.781,0,1.455-0.013,2.023-0.041c-0.397-0.539-0.787-1.109-1.172-1.707
	c-0.863-1.383-0.65-3.07-0.021-4.564C5.693,25.502,3.066,24.957,0.5,23.035z M10.385,33.009c-1.4,0.005-2.764,0.263-4.15,0.454
	c-2.153,0.418-4.192,1.275-5.735,3.003V41.5h18.85c0.064-0.195,0.084-0.419,0.084-0.641c-0.016-1.465-0.988-2.799-2.176-3.814
	c-1.668-1.418-3.601-2.566-5.457-3.945C11.323,33.033,10.852,33.007,10.385,33.009z"/>
</svg>
