<?xml version="1.0" encoding="utf-8"?>
<!-- Generator: Adobe Illustrator 16.0.4, SVG Export Plug-In . SVG Version: 6.00 Build 0)  -->
<!DOCTYPE svg PUBLIC "-//W3C//DTD SVG 1.1 Tiny//EN" "http://www.w3.org/Graphics/SVG/1.1/DTD/svg11-tiny.dtd" [
	<!ENTITY ns_flows "http://ns.adobe.com/Flows/1.0/">
	<!ENTITY ns_extend "http://ns.adobe.com/Extensibility/1.0/">
	<!ENTITY ns_ai "http://ns.adobe.com/AdobeIllustrator/10.0/">
	<!ENTITY ns_graphs "http://ns.adobe.com/Graphs/1.0/">
]>
<svg version="1.1" baseProfile="tiny" id="Layer_1" xmlns:x="&ns_extend;" xmlns:i="&ns_ai;" xmlns:graph="&ns_graphs;"
	 xmlns="http://www.w3.org/2000/svg" xmlns:xlink="http://www.w3.org/1999/xlink" xmlns:a="http://ns.adobe.com/AdobeSVGViewerExtensions/3.0/"
	 x="0px" y="0px" width="42px" height="42px" viewBox="-0.5 0.5 42 42" xml:space="preserve">
<path d="M6.5,16.272l4.96-0.03c0.26-4.779,2.84-9.831,9.04-9.831c5.98,0,8.67,5.089,9,10.089h5c-0.09-9-4.67-14.919-14-14.999
	C11.23,1.411,6.5,7.912,6.5,16.272z M3.5,21.271v16.771c0,2.489,0.561,3.458,3,3.458h12c-0.001,0-0.001,0,0,0
	c0.152,0,16.078,0,16.078,0c2.609,0,2.922-0.928,2.922-3.459V21.271c0-2.458-0.46-2.771-3-2.771h-28
	C4.09,18.5,3.5,18.942,3.5,21.271z M23.68,28.041c0,1.41-0.91,2.83-2.17,3.25L23.5,36.5h-6l1.99-5.209
	c-1.26-0.42-2.17-1.725-2.17-3.135c0-1.76,1.42-3.237,3.18-3.237S23.68,26.281,23.68,28.041z"/>
</svg>
