<?xml version="1.0" encoding="utf-8"?>
<!-- Generator: Adobe Illustrator 16.0.4, SVG Export Plug-In . SVG Version: 6.00 Build 0)  -->
<!DOCTYPE svg PUBLIC "-//W3C//DTD SVG 1.1 Tiny//EN" "http://www.w3.org/Graphics/SVG/1.1/DTD/svg11-tiny.dtd" [
	<!ENTITY ns_flows "http://ns.adobe.com/Flows/1.0/">
	<!ENTITY ns_extend "http://ns.adobe.com/Extensibility/1.0/">
	<!ENTITY ns_ai "http://ns.adobe.com/AdobeIllustrator/10.0/">
	<!ENTITY ns_graphs "http://ns.adobe.com/Graphs/1.0/">
]>
<svg version="1.1" baseProfile="tiny" id="Layer_1" xmlns:x="&ns_extend;" xmlns:i="&ns_ai;" xmlns:graph="&ns_graphs;"
	 xmlns="http://www.w3.org/2000/svg" xmlns:xlink="http://www.w3.org/1999/xlink" xmlns:a="http://ns.adobe.com/AdobeSVGViewerExtensions/3.0/"
	 x="0px" y="0px" width="42px" height="42px" viewBox="-0.5 0.5 42 42" xml:space="preserve">
<g transform="matrix(1.316,0,0,-1.316,-164.01053,416.18645)">
	<path d="M154.641,303.44c-0.045-3.242-1.638-6.182-3.983-8.065c-3.047-2.266-5.894-3.022-10.453-3.081v-1.823
		c0-2.342-1.349-4.374-3.34-5.269c-0.733-0.34-1.458-0.484-2.198-0.487c-1.043,0.012-2.061,0.321-2.821,0.729v5.269
		c0.76-0.49,1.728-0.819,2.544-0.588c0.72,0.261,1.256,0.813,1.256,1.48v14.387h4.559v-8.875c1.52,0.016,2.55,0.144,3.651,0.384
		c1.443,0.343,2.889,0.882,3.929,1.784c1.278,1.189,1.871,2.604,1.882,4.153c-0.019,2.294-1.183,4.202-2.989,5.309
		c-2.047,1.144-4.307,1.532-6.483,1.54c-2.346-0.05-4.651-0.501-6.53-1.641c-1.918-1.213-2.948-3.219-2.964-5.207
		c0.122-1.434,0.498-3.428,1.495-4.337l-3.359-3.526c-1.091,1.066-1.809,2.37-2.281,3.688c-0.464,1.395-0.783,2.783-0.789,4.175
		c0.058,3.384,1.597,6.438,4.024,8.429c3.063,2.339,6.909,3.224,10.413,3.242c3.838-0.064,7.63-1.008,10.454-3.222
		C153.307,309.69,154.617,306.506,154.641,303.44z"/>
</g>
</svg>
