<?xml version="1.0" encoding="utf-8"?>
<!-- Generator: Adobe Illustrator 16.0.4, SVG Export Plug-In . SVG Version: 6.00 Build 0)  -->
<!DOCTYPE svg PUBLIC "-//W3C//DTD SVG 1.1 Tiny//EN" "http://www.w3.org/Graphics/SVG/1.1/DTD/svg11-tiny.dtd" [
	<!ENTITY ns_flows "http://ns.adobe.com/Flows/1.0/">
	<!ENTITY ns_extend "http://ns.adobe.com/Extensibility/1.0/">
	<!ENTITY ns_ai "http://ns.adobe.com/AdobeIllustrator/10.0/">
	<!ENTITY ns_graphs "http://ns.adobe.com/Graphs/1.0/">
]>
<svg version="1.1" baseProfile="tiny" id="Layer_1" xmlns:x="&ns_extend;" xmlns:i="&ns_ai;" xmlns:graph="&ns_graphs;"
	 xmlns="http://www.w3.org/2000/svg" xmlns:xlink="http://www.w3.org/1999/xlink" xmlns:a="http://ns.adobe.com/AdobeSVGViewerExtensions/3.0/"
	 x="0px" y="0px" width="42px" height="42px" viewBox="-0.5 0.5 42 42" xml:space="preserve">
<g transform="translate(-374.2178,-62.2364)">
	<path d="M414.718,63.736v40h-40v-40H414.718z M398.017,92.891c-0.681-0.188-1.399-0.404-1.933-0.824
		c-0.211-0.17-0.366-0.322-0.366-0.465c0-3.41,0-6.865,0-9.864h7c0-2,0-3,0-5h-7v-7h-3.621c-0.277,4-2.379,7.15-5.379,7.15v4.85h3
		c0,2.999,0,7.019,0,10.71c0,1.742,0.674,3.24,2.077,4.037c1.327,0.689,2.655,0.863,4.052,0.867c1.368-0.006,2.603,0.021,3.9-0.062
		c1.137-0.041,1.971-0.301,2.971-0.781v-4.777v-0.043v0.043c0,0.365-0.998,0.676-1.674,0.93
		C399.909,93.029,399.081,93.152,398.017,92.891z"/>
</g>
</svg>
