<?xml version="1.0" encoding="utf-8"?>
<!-- Generator: Adobe Illustrator 16.0.4, SVG Export Plug-In . SVG Version: 6.00 Build 0)  -->
<!DOCTYPE svg PUBLIC "-//W3C//DTD SVG 1.1 Tiny//EN" "http://www.w3.org/Graphics/SVG/1.1/DTD/svg11-tiny.dtd" [
	<!ENTITY ns_flows "http://ns.adobe.com/Flows/1.0/">
	<!ENTITY ns_extend "http://ns.adobe.com/Extensibility/1.0/">
	<!ENTITY ns_ai "http://ns.adobe.com/AdobeIllustrator/10.0/">
	<!ENTITY ns_graphs "http://ns.adobe.com/Graphs/1.0/">
]>
<svg version="1.1" baseProfile="tiny" id="Layer_1" xmlns:x="&ns_extend;" xmlns:i="&ns_ai;" xmlns:graph="&ns_graphs;"
	 xmlns="http://www.w3.org/2000/svg" xmlns:xlink="http://www.w3.org/1999/xlink" xmlns:a="http://ns.adobe.com/AdobeSVGViewerExtensions/3.0/"
	 x="0px" y="0px" width="42px" height="42px" viewBox="0 0 42 42" xml:space="preserve">
<path fill-rule="evenodd" d="M10.511,11.598c0,5.844,4.691,10.696,10.49,10.696S31.49,17.441,31.49,11.598
	C31.49,5.743,26.8,1,21.001,1S10.511,5.743,10.511,11.598z M20.94,25c-2.738,0-5.33-0.83-7.68-3.033
	c-5.689,1.953-9.18,7.38-9.26,11.963c-0.049,2.57,3.311,3.999,6.35,5.25c3.43,0.92,6.49,1.819,10.65,1.819s7.218-0.932,10.649-1.852
	c3.039-1.251,6.398-2.728,6.35-5.298c-0.08-4.584-3.609-9.928-9.301-11.881C26.351,24.172,23.79,25,21.05,25H20.94z"/>
</svg>
