<?xml version="1.0" encoding="utf-8"?>
<!-- Generator: Adobe Illustrator 16.0.4, SVG Export Plug-In . SVG Version: 6.00 Build 0)  -->
<!DOCTYPE svg PUBLIC "-//W3C//DTD SVG 1.1 Tiny//EN" "http://www.w3.org/Graphics/SVG/1.1/DTD/svg11-tiny.dtd" [
	<!ENTITY ns_flows "http://ns.adobe.com/Flows/1.0/">
	<!ENTITY ns_extend "http://ns.adobe.com/Extensibility/1.0/">
	<!ENTITY ns_ai "http://ns.adobe.com/AdobeIllustrator/10.0/">
	<!ENTITY ns_graphs "http://ns.adobe.com/Graphs/1.0/">
]>
<svg version="1.1" baseProfile="tiny" id="Layer_1" xmlns:x="&ns_extend;" xmlns:i="&ns_ai;" xmlns:graph="&ns_graphs;"
	 xmlns="http://www.w3.org/2000/svg" xmlns:xlink="http://www.w3.org/1999/xlink" xmlns:a="http://ns.adobe.com/AdobeSVGViewerExtensions/3.0/"
	 x="0px" y="0px" width="42px" height="42px" viewBox="-0.5 0.5 42 42" xml:space="preserve">
<g transform="matrix(.54123,0,0,-.54123,-14.61311,418.36787)">
	<path d="M86.595,750.613c-7.634,6.308-17.771-2.311-20.156-9.218c1.472-0.025,3.154,0.128,4.413-0.352
		c1.949-1.054,1.976-3.085,1.837-4.803c-0.868-3.811-3.565-10.739-7.033-11.292c-0.729-0.076-1.484,0.325-2.263,1.213
		c-3.028,3.793-2.654,8.784-3.36,12.97c-0.66,3.5-1.16,10.571-5.312,12.107c-4.577,0.559-8.857-2.846-11.789-5.547
		c-1.797-1.665-3.924-3.255-5.772-4.763v-0.314c1.849-0.536,1.073-1.083,1.476-1.601c0.685-0.687,2.064-0.521,2.826-0.272
		c2.771,0.72,3.811,1.427,5.301-1.211c2.245-6.067,3.977-12.906,5.464-18.712c1.038-3.313,2.423-7.542,5.758-8.906
		c2.06-0.873,5.62,0.299,7.198,1.249c6.741,4.262,11.963,11.079,15.705,17.657C83.62,734.362,90.419,745.394,86.595,750.613z
		 M101.829,770.223v-73.906H27.924v73.906H101.829z"/>
</g>
</svg>
